<svg xmlns="http://www.w3.org/2000/svg" xmlns:xlink="http://www.w3.org/1999/xlink" width="500" zoomAndPan="magnify" viewBox="0 0 375 374.999991" height="500" preserveAspectRatio="xMidYMid meet" version="1.0"><defs><g/><clipPath id="30a351ad40"><rect x="0" width="240" y="0" height="302"/></clipPath><clipPath id="c61625f7b6"><path d="M 70.753906 9.671875 L 308.992188 9.671875 L 308.992188 101.941406 L 70.753906 101.941406 Z M 70.753906 9.671875 " clip-rule="nonzero"/></clipPath><clipPath id="fa1e9ee8ef"><path d="M 265.640625 71.832031 L 70.976562 71.832031 L 70.976562 39.789062 L 265.644531 39.789062 L 254.257812 9.671875 L 308.992188 55.808594 L 254.257812 101.941406 Z M 265.640625 71.832031 " clip-rule="nonzero"/></clipPath><clipPath id="653b0769c8"><path d="M 1 0.671875 L 238.992188 0.671875 L 238.992188 92.941406 L 1 92.941406 Z M 1 0.671875 " clip-rule="nonzero"/></clipPath><clipPath id="c36ae5fae9"><path d="M 195.640625 62.832031 L 0.976562 62.832031 L 0.976562 30.789062 L 195.644531 30.789062 L 184.257812 0.671875 L 238.992188 46.808594 L 184.257812 92.941406 Z M 195.640625 62.832031 " clip-rule="nonzero"/></clipPath><clipPath id="2ddb974758"><rect x="0" width="239" y="0" height="93"/></clipPath></defs><rect x="-37.5" width="450" fill="#ffffff" y="-37.499999" height="449.999989" fill-opacity="1"/><rect x="-37.5" width="450" fill="#eaeaea" y="-37.499999" height="449.999989" fill-opacity="1"/><g transform="matrix(1, 0, 0, 1, 75, 73)"><g clip-path="url(#30a351ad40)"><g fill="#b5006d" fill-opacity="1"><g transform="translate(4.178677, 270.192014)"><g><path d="M 163.234375 -120.5 C 177.003906 -118.625 188.617188 -112.957031 198.078125 -103.5 C 207.535156 -94.050781 212.265625 -80.566406 212.265625 -63.046875 C 212.265625 -44.367188 206.132812 -29.191406 193.875 -17.515625 C 181.613281 -5.835938 163.34375 0 139.0625 0 L 22.765625 0 L 22.765625 -232.9375 L 141.515625 -232.9375 C 157.859375 -232.9375 170.929688 -230.367188 180.734375 -225.234375 C 190.546875 -220.097656 197.726562 -213.207031 202.28125 -204.5625 C 206.84375 -195.925781 209.125 -186.351562 209.125 -175.84375 C 209.125 -164.394531 206.90625 -154.816406 202.46875 -147.109375 C 198.03125 -139.410156 192.304688 -133.398438 185.296875 -129.078125 C 178.296875 -124.753906 170.941406 -121.894531 163.234375 -120.5 Z M 133.109375 -203.859375 L 58.84375 -203.859375 L 58.84375 -133.8125 L 128.546875 -133.8125 C 143.492188 -133.8125 154.351562 -136.785156 161.125 -142.734375 C 167.894531 -148.691406 171.28125 -157.625 171.28125 -169.53125 C 171.28125 -180.976562 168.59375 -189.5625 163.21875 -195.28125 C 157.851562 -201 147.816406 -203.859375 133.109375 -203.859375 Z M 134.859375 -29.078125 C 149.335938 -29.078125 159.550781 -32.867188 165.5 -40.453125 C 171.457031 -48.046875 174.4375 -56.976562 174.4375 -67.25 C 174.4375 -80.09375 170.816406 -89.957031 163.578125 -96.84375 C 156.335938 -103.738281 144.660156 -107.1875 128.546875 -107.1875 L 58.84375 -107.1875 L 58.84375 -29.078125 Z M 134.859375 -29.078125 "/></g></g></g></g></g><g clip-path="url(#c61625f7b6)"><g clip-path="url(#fa1e9ee8ef)"><g transform="matrix(1, 0, 0, 1, 70, 9)"><g clip-path="url(#2ddb974758)"><g clip-path="url(#653b0769c8)"><g clip-path="url(#c36ae5fae9)"><path fill="#b5006d" d="M 238.992188 92.941406 L 1.113281 92.941406 L 1.113281 0.671875 L 238.992188 0.671875 Z M 238.992188 92.941406 " fill-opacity="1" fill-rule="nonzero"/></g></g></g></g></g></g></svg>