<svg xmlns="http://www.w3.org/2000/svg" xmlns:xlink="http://www.w3.org/1999/xlink" width="1366" zoomAndPan="magnify" viewBox="0 0 1024.5 576" height="768" preserveAspectRatio="xMidYMid meet" version="1.0"><defs><g/><clipPath id="13780e2d3d"><path d="M 0 0.140625 L 1024 0.140625 L 1024 575.859375 L 0 575.859375 Z M 0 0.140625 " clip-rule="nonzero"/></clipPath><clipPath id="3d61dee6df"><path d="M 182.105469 194.972656 L 234.664062 194.972656 L 234.664062 217.066406 L 182.105469 217.066406 Z M 182.105469 194.972656 " clip-rule="nonzero"/></clipPath><clipPath id="64ff96d185"><path d="M 224.75 210.171875 L 182.179688 210.171875 L 182.179688 201.867188 L 224.75 201.867188 L 222.144531 194.972656 L 234.664062 206.019531 L 222.144531 217.066406 Z M 224.75 210.171875 " clip-rule="nonzero"/></clipPath><clipPath id="693cf27c88"><path d="M 0.105469 0.972656 L 52.664062 0.972656 L 52.664062 23.066406 L 0.105469 23.066406 Z M 0.105469 0.972656 " clip-rule="nonzero"/></clipPath><clipPath id="c8b31d15e0"><path d="M 42.75 16.171875 L 0.179688 16.171875 L 0.179688 7.867188 L 42.75 7.867188 L 40.144531 0.972656 L 52.664062 12.019531 L 40.144531 23.066406 Z M 42.75 16.171875 " clip-rule="nonzero"/></clipPath><clipPath id="7fdc93b34c"><rect x="0" width="53" y="0" height="24"/></clipPath><clipPath id="2fad710a22"><rect x="0" width="287" y="0" height="65"/></clipPath><clipPath id="7a6e7c6c1e"><path d="M 89 6 L 103.769531 6 L 103.769531 20 L 89 20 Z M 89 6 " clip-rule="nonzero"/></clipPath><clipPath id="9bc6930e33"><rect x="0" width="104" y="0" height="25"/></clipPath><clipPath id="6be7f7b71e"><path d="M 122 5 L 131.945312 5 L 131.945312 15 L 122 15 Z M 122 5 " clip-rule="nonzero"/></clipPath><clipPath id="570ce41e36"><path d="M 31 25 L 41 25 L 41 38.503906 L 31 38.503906 Z M 31 25 " clip-rule="nonzero"/></clipPath><clipPath id="1d81272f18"><rect x="0" width="132" y="0" height="39"/></clipPath></defs><g clip-path="url(#13780e2d3d)"><path fill="#ffffff" d="M 0 0.140625 L 1024 0.140625 L 1024 575.859375 L 0 575.859375 Z M 0 0.140625 " fill-opacity="1" fill-rule="nonzero"/><path fill="#000000" d="M 0 0.140625 L 1024 0.140625 L 1024 575.859375 L 0 575.859375 Z M 0 0.140625 " fill-opacity="1" fill-rule="nonzero"/></g><g clip-path="url(#3d61dee6df)"><g clip-path="url(#64ff96d185)"><g transform="matrix(1, 0, 0, 1, 182, 194)"><g clip-path="url(#7fdc93b34c)"><g clip-path="url(#693cf27c88)"><g clip-path="url(#c8b31d15e0)"><path fill="#db2b8a" d="M 52.664062 23.066406 L 0.191406 23.066406 L 0.191406 0.972656 L 52.664062 0.972656 Z M 52.664062 23.066406 " fill-opacity="1" fill-rule="nonzero"/></g></g></g></g></g></g><g transform="matrix(1, 0, 0, 1, 68, 210)"><g clip-path="url(#2fad710a22)"><g fill="#ffffff" fill-opacity="1"><g transform="translate(0.540314, 50.764476)"><g><path d="M 25.703125 1.125 C 20.566406 1.125 16.367188 0.101562 13.109375 -1.9375 C 9.847656 -3.976562 7.445312 -6.726562 5.90625 -10.1875 C 4.375 -13.644531 3.609375 -17.546875 3.609375 -21.890625 C 3.609375 -26.179688 4.394531 -30.054688 5.96875 -33.515625 C 7.550781 -36.972656 9.984375 -39.734375 13.265625 -41.796875 C 16.554688 -43.859375 20.765625 -44.890625 25.890625 -44.890625 C 30.535156 -44.890625 34.335938 -44.1875 37.296875 -42.78125 C 40.253906 -41.382812 42.5 -39.390625 44.03125 -36.796875 C 45.5625 -34.210938 46.484375 -31.101562 46.796875 -27.46875 L 39.890625 -27.46875 C 39.453125 -31.238281 38.125 -34.148438 35.90625 -36.203125 C 33.695312 -38.265625 30.316406 -39.296875 25.765625 -39.296875 C 20.585938 -39.296875 16.785156 -37.816406 14.359375 -34.859375 C 11.929688 -31.898438 10.71875 -27.578125 10.71875 -21.890625 C 10.71875 -16.191406 11.898438 -11.863281 14.265625 -8.90625 C 16.628906 -5.945312 20.394531 -4.46875 25.5625 -4.46875 C 30.289062 -4.46875 33.804688 -5.582031 36.109375 -7.8125 C 38.410156 -10.050781 39.710938 -13.117188 40.015625 -17.015625 L 46.984375 -17.015625 C 46.765625 -13.335938 45.890625 -10.140625 44.359375 -7.421875 C 42.828125 -4.710938 40.535156 -2.609375 37.484375 -1.109375 C 34.441406 0.378906 30.515625 1.125 25.703125 1.125 Z M 25.703125 1.125 "/></g></g></g><g fill="#ffffff" fill-opacity="1"><g transform="translate(47.529581, 50.764476)"><g><path d="M 27.796875 -32.859375 L 34.375 -32.859375 L 34.375 0 L 27.796875 0 L 27.796875 -7.15625 C 26.835938 -4.75 25.4375 -2.78125 23.59375 -1.25 C 21.75 0.28125 19.273438 1.046875 16.171875 1.046875 C 11.785156 1.046875 8.648438 -0.113281 6.765625 -2.4375 C 4.878906 -4.757812 3.9375 -8.066406 3.9375 -12.359375 L 3.9375 -32.859375 L 10.515625 -32.859375 L 10.515625 -12.953125 C 10.515625 -10.671875 10.851562 -8.90625 11.53125 -7.65625 C 12.207031 -6.40625 13.125 -5.550781 14.28125 -5.09375 C 15.445312 -4.632812 16.753906 -4.40625 18.203125 -4.40625 C 21.140625 -4.40625 23.472656 -5.609375 25.203125 -8.015625 C 26.929688 -10.421875 27.796875 -14.082031 27.796875 -19 Z M 27.796875 -32.859375 "/></g></g></g><g fill="#ffffff" fill-opacity="1"><g transform="translate(83.215111, 50.764476)"><g><path d="M 19.84375 -3.8125 C 22.820312 -3.8125 25.046875 -4.398438 26.515625 -5.578125 C 27.984375 -6.765625 28.9375 -8.210938 29.375 -9.921875 L 35.421875 -9.921875 C 35.285156 -8.785156 34.921875 -7.582031 34.328125 -6.3125 C 33.742188 -5.039062 32.847656 -3.84375 31.640625 -2.71875 C 30.441406 -1.601562 28.863281 -0.695312 26.90625 0 C 24.957031 0.695312 22.539062 1.046875 19.65625 1.046875 C 15.75 1.046875 12.566406 0.257812 10.109375 -1.3125 C 7.660156 -2.894531 5.863281 -5.007812 4.71875 -7.65625 C 3.582031 -10.300781 3.015625 -13.25 3.015625 -16.5 C 3.015625 -19.695312 3.617188 -22.609375 4.828125 -25.234375 C 6.035156 -27.859375 7.875 -29.957031 10.34375 -31.53125 C 12.820312 -33.113281 15.925781 -33.90625 19.65625 -33.90625 C 23.15625 -33.90625 26.078125 -33.160156 28.421875 -31.671875 C 30.765625 -30.179688 32.523438 -28.164062 33.703125 -25.625 C 34.890625 -23.082031 35.484375 -20.238281 35.484375 -17.09375 C 35.484375 -16.644531 35.484375 -16.222656 35.484375 -15.828125 C 35.484375 -15.441406 35.441406 -15.03125 35.359375 -14.59375 L 9.46875 -14.59375 C 9.632812 -11.832031 10.1875 -9.671875 11.125 -8.109375 C 12.070312 -6.554688 13.289062 -5.453125 14.78125 -4.796875 C 16.269531 -4.140625 17.957031 -3.8125 19.84375 -3.8125 Z M 19.71875 -29.046875 C 16.914062 -29.046875 14.613281 -28.34375 12.8125 -26.9375 C 11.019531 -25.539062 9.925781 -23.023438 9.53125 -19.390625 L 29.171875 -19.390625 C 29.003906 -22.710938 28.117188 -25.148438 26.515625 -26.703125 C 24.921875 -28.265625 22.65625 -29.046875 19.71875 -29.046875 Z M 19.71875 -29.046875 "/></g></g></g><g fill="#db2b8a" fill-opacity="1"><g transform="translate(118.185158, 50.764476)"><g><path d="M 30.625 -22.609375 C 33.207031 -22.253906 35.382812 -21.191406 37.15625 -19.421875 C 38.9375 -17.648438 39.828125 -15.117188 39.828125 -11.828125 C 39.828125 -8.328125 38.675781 -5.476562 36.375 -3.28125 C 34.070312 -1.09375 30.644531 0 26.09375 0 L 4.265625 0 L 4.265625 -43.703125 L 26.546875 -43.703125 C 29.617188 -43.703125 32.070312 -43.21875 33.90625 -42.25 C 35.75 -41.289062 37.097656 -40 37.953125 -38.375 C 38.804688 -36.757812 39.234375 -34.960938 39.234375 -32.984375 C 39.234375 -30.835938 38.816406 -29.039062 37.984375 -27.59375 C 37.148438 -26.15625 36.078125 -25.03125 34.765625 -24.21875 C 33.453125 -23.40625 32.070312 -22.867188 30.625 -22.609375 Z M 24.96875 -38.25 L 11.046875 -38.25 L 11.046875 -25.109375 L 24.125 -25.109375 C 26.925781 -25.109375 28.960938 -25.664062 30.234375 -26.78125 C 31.503906 -27.894531 32.140625 -29.570312 32.140625 -31.8125 C 32.140625 -33.957031 31.632812 -35.566406 30.625 -36.640625 C 29.613281 -37.710938 27.726562 -38.25 24.96875 -38.25 Z M 25.296875 -5.453125 C 28.015625 -5.453125 29.929688 -6.160156 31.046875 -7.578125 C 32.171875 -9.003906 32.734375 -10.6875 32.734375 -12.625 C 32.734375 -15.03125 32.050781 -16.878906 30.6875 -18.171875 C 29.332031 -19.460938 27.144531 -20.109375 24.125 -20.109375 L 11.046875 -20.109375 L 11.046875 -5.453125 Z M 25.296875 -5.453125 "/></g></g></g><g fill="#ffffff" fill-opacity="1"><g transform="translate(158.011112, 50.764476)"><g><path d="M 14.53125 0.859375 C 11.195312 0.859375 8.539062 0.00390625 6.5625 -1.703125 C 4.59375 -3.410156 3.609375 -5.78125 3.609375 -8.8125 C 3.609375 -11.4375 4.351562 -13.59375 5.84375 -15.28125 C 7.332031 -16.96875 9.921875 -18.117188 13.609375 -18.734375 L 21.8125 -20.109375 C 23.394531 -20.367188 24.554688 -20.785156 25.296875 -21.359375 C 26.046875 -21.929688 26.421875 -22.785156 26.421875 -23.921875 C 26.421875 -25.410156 25.925781 -26.613281 24.9375 -27.53125 C 23.957031 -28.457031 22.039062 -28.921875 19.1875 -28.921875 C 16.519531 -28.921875 14.515625 -28.382812 13.171875 -27.3125 C 11.835938 -26.238281 11.082031 -24.671875 10.90625 -22.609375 L 4.34375 -22.609375 C 4.382812 -26.109375 5.660156 -28.875 8.171875 -30.90625 C 10.691406 -32.945312 14.273438 -33.96875 18.921875 -33.96875 C 23.484375 -33.96875 26.878906 -33.023438 29.109375 -31.140625 C 31.347656 -29.265625 32.46875 -26.816406 32.46875 -23.796875 L 32.46875 -7.484375 C 32.46875 -6.265625 32.488281 -5.09375 32.53125 -3.96875 C 32.570312 -2.851562 32.660156 -1.53125 32.796875 0 L 26.8125 0 C 26.675781 -1.269531 26.578125 -2.492188 26.515625 -3.671875 C 26.453125 -4.859375 26.421875 -6.109375 26.421875 -7.421875 C 25.984375 -6.066406 25.269531 -4.753906 24.28125 -3.484375 C 23.289062 -2.210938 21.992188 -1.171875 20.390625 -0.359375 C 18.796875 0.453125 16.84375 0.859375 14.53125 0.859375 Z M 15.90625 -4.203125 C 18.226562 -4.203125 20.164062 -4.726562 21.71875 -5.78125 C 23.269531 -6.832031 24.441406 -8.242188 25.234375 -10.015625 C 26.023438 -11.796875 26.421875 -13.78125 26.421875 -15.96875 L 26.421875 -17.9375 C 25.546875 -17.28125 24.601562 -16.785156 23.59375 -16.453125 C 22.582031 -16.128906 21.570312 -15.859375 20.5625 -15.640625 L 16.03125 -14.59375 C 14.019531 -14.15625 12.539062 -13.507812 11.59375 -12.65625 C 10.65625 -11.800781 10.1875 -10.601562 10.1875 -9.0625 C 10.1875 -7.488281 10.710938 -6.285156 11.765625 -5.453125 C 12.816406 -4.617188 14.195312 -4.203125 15.90625 -4.203125 Z M 15.90625 -4.203125 "/></g></g></g><g fill="#ffffff" fill-opacity="1"><g transform="translate(191.199298, 50.764476)"><g><path d="M 2.234375 -10.96875 L 8.34375 -10.96875 C 8.476562 -8.957031 9.265625 -7.257812 10.703125 -5.875 C 12.148438 -4.5 14.472656 -3.8125 17.671875 -3.8125 C 20.609375 -3.8125 22.554688 -4.28125 23.515625 -5.21875 C 24.484375 -6.164062 24.96875 -7.382812 24.96875 -8.875 C 24.96875 -10.226562 24.570312 -11.285156 23.78125 -12.046875 C 23 -12.816406 21.734375 -13.335938 19.984375 -13.609375 L 11.828125 -14.859375 C 8.984375 -15.296875 6.800781 -16.28125 5.28125 -17.8125 C 3.769531 -19.34375 3.015625 -21.359375 3.015625 -23.859375 C 3.015625 -27.015625 4.21875 -29.488281 6.625 -31.28125 C 9.039062 -33.070312 12.394531 -33.96875 16.6875 -33.96875 C 20.9375 -33.96875 24.3125 -33.003906 26.8125 -31.078125 C 29.3125 -29.148438 30.671875 -26.632812 30.890625 -23.53125 L 24.3125 -23.53125 C 24.132812 -25.0625 23.421875 -26.375 22.171875 -27.46875 C 20.929688 -28.5625 19.039062 -29.109375 16.5 -29.109375 C 13.957031 -29.109375 12.132812 -28.660156 11.03125 -27.765625 C 9.9375 -26.867188 9.390625 -25.765625 9.390625 -24.453125 C 9.390625 -23.484375 9.707031 -22.613281 10.34375 -21.84375 C 10.976562 -21.082031 12.175781 -20.570312 13.9375 -20.3125 L 21.03125 -19.25 C 23.75 -18.863281 25.863281 -18.195312 27.375 -17.25 C 28.882812 -16.3125 29.929688 -15.160156 30.515625 -13.796875 C 31.109375 -12.441406 31.40625 -10.910156 31.40625 -9.203125 C 31.40625 -5.828125 30.273438 -3.273438 28.015625 -1.546875 C 25.765625 0.179688 22.253906 1.046875 17.484375 1.046875 C 13.890625 1.046875 10.960938 0.507812 8.703125 -0.5625 C 6.453125 -1.632812 4.8125 -3.078125 3.78125 -4.890625 C 2.75 -6.710938 2.234375 -8.738281 2.234375 -10.96875 Z M 2.234375 -10.96875 "/></g></g></g><g fill="#ffffff" fill-opacity="1"><g transform="translate(221.824428, 50.764476)"><g><path d="M 19.84375 -3.8125 C 22.820312 -3.8125 25.046875 -4.398438 26.515625 -5.578125 C 27.984375 -6.765625 28.9375 -8.210938 29.375 -9.921875 L 35.421875 -9.921875 C 35.285156 -8.785156 34.921875 -7.582031 34.328125 -6.3125 C 33.742188 -5.039062 32.847656 -3.84375 31.640625 -2.71875 C 30.441406 -1.601562 28.863281 -0.695312 26.90625 0 C 24.957031 0.695312 22.539062 1.046875 19.65625 1.046875 C 15.75 1.046875 12.566406 0.257812 10.109375 -1.3125 C 7.660156 -2.894531 5.863281 -5.007812 4.71875 -7.65625 C 3.582031 -10.300781 3.015625 -13.25 3.015625 -16.5 C 3.015625 -19.695312 3.617188 -22.609375 4.828125 -25.234375 C 6.035156 -27.859375 7.875 -29.957031 10.34375 -31.53125 C 12.820312 -33.113281 15.925781 -33.90625 19.65625 -33.90625 C 23.15625 -33.90625 26.078125 -33.160156 28.421875 -31.671875 C 30.765625 -30.179688 32.523438 -28.164062 33.703125 -25.625 C 34.890625 -23.082031 35.484375 -20.238281 35.484375 -17.09375 C 35.484375 -16.644531 35.484375 -16.222656 35.484375 -15.828125 C 35.484375 -15.441406 35.441406 -15.03125 35.359375 -14.59375 L 9.46875 -14.59375 C 9.632812 -11.832031 10.1875 -9.671875 11.125 -8.109375 C 12.070312 -6.554688 13.289062 -5.453125 14.78125 -4.796875 C 16.269531 -4.140625 17.957031 -3.8125 19.84375 -3.8125 Z M 19.71875 -29.046875 C 16.914062 -29.046875 14.613281 -28.34375 12.8125 -26.9375 C 11.019531 -25.539062 9.925781 -23.023438 9.53125 -19.390625 L 29.171875 -19.390625 C 29.003906 -22.710938 28.117188 -25.148438 26.515625 -26.703125 C 24.921875 -28.265625 22.65625 -29.046875 19.71875 -29.046875 Z M 19.71875 -29.046875 "/></g></g></g><g fill="#ffffff" fill-opacity="1"><g transform="translate(256.787042, 50.764476)"><g><path d="M 1.96875 0 L 28.265625 0 L 28.265625 4.921875 L 1.96875 4.921875 Z M 1.96875 0 "/></g></g></g></g></g><g transform="matrix(1, 0, 0, 1, 38, 49)"><g clip-path="url(#9bc6930e33)"><g fill="#ffffff" fill-opacity="1"><g transform="translate(0.17634, 19.331733)"><g><path d="M 9.75 0.390625 C 8.15625 0.390625 6.800781 0.15625 5.6875 -0.3125 C 4.570312 -0.78125 3.664062 -1.414062 2.96875 -2.21875 C 2.28125 -3.019531 1.773438 -3.9375 1.453125 -4.96875 C 1.140625 -6 0.984375 -7.085938 0.984375 -8.234375 C 0.984375 -9.335938 1.144531 -10.40625 1.46875 -11.4375 C 1.789062 -12.476562 2.300781 -13.410156 3 -14.234375 C 3.695312 -15.054688 4.601562 -15.707031 5.71875 -16.1875 C 6.832031 -16.664062 8.179688 -16.90625 9.765625 -16.90625 C 11.734375 -16.90625 13.320312 -16.644531 14.53125 -16.125 C 15.75 -15.601562 16.660156 -14.816406 17.265625 -13.765625 C 17.867188 -12.722656 18.226562 -11.40625 18.34375 -9.8125 L 13.859375 -9.8125 C 13.765625 -10.9375 13.429688 -11.804688 12.859375 -12.421875 C 12.285156 -13.035156 11.28125 -13.34375 9.84375 -13.34375 C 8.34375 -13.34375 7.25 -12.914062 6.5625 -12.0625 C 5.882812 -11.207031 5.546875 -9.929688 5.546875 -8.234375 C 5.546875 -6.566406 5.867188 -5.300781 6.515625 -4.4375 C 7.160156 -3.582031 8.226562 -3.15625 9.71875 -3.15625 C 11.1875 -3.15625 12.226562 -3.457031 12.84375 -4.0625 C 13.46875 -4.675781 13.820312 -5.585938 13.90625 -6.796875 L 18.453125 -6.796875 C 18.316406 -5.109375 17.945312 -3.734375 17.34375 -2.671875 C 16.738281 -1.617188 15.820312 -0.84375 14.59375 -0.34375 C 13.375 0.144531 11.757812 0.390625 9.75 0.390625 Z M 9.75 0.390625 "/></g></g></g><g fill="#ffffff" fill-opacity="1"><g transform="translate(18.380108, 19.331733)"><g><path d="M 10.265625 -12.40625 L 14.53125 -12.40625 L 14.53125 0 L 10.265625 0 L 10.265625 -2.25 C 9.867188 -1.445312 9.3125 -0.804688 8.59375 -0.328125 C 7.875 0.148438 6.96875 0.390625 5.875 0.390625 C 4.257812 0.390625 3.070312 -0.078125 2.3125 -1.015625 C 1.550781 -1.960938 1.171875 -3.242188 1.171875 -4.859375 L 1.171875 -12.40625 L 5.4375 -12.40625 L 5.4375 -5.609375 C 5.4375 -4.773438 5.609375 -4.140625 5.953125 -3.703125 C 6.296875 -3.265625 6.847656 -3.046875 7.609375 -3.046875 C 8.441406 -3.046875 9.09375 -3.332031 9.5625 -3.90625 C 10.03125 -4.488281 10.265625 -5.378906 10.265625 -6.578125 Z M 10.265625 -12.40625 "/></g></g></g><g fill="#ffffff" fill-opacity="1"><g transform="translate(33.06213, 19.331733)"><g><path d="M 7.765625 -2.453125 C 8.390625 -2.453125 8.898438 -2.578125 9.296875 -2.828125 C 9.691406 -3.078125 9.972656 -3.382812 10.140625 -3.75 L 14.28125 -3.75 C 14.144531 -3.03125 13.84375 -2.359375 13.375 -1.734375 C 12.90625 -1.109375 12.210938 -0.597656 11.296875 -0.203125 C 10.378906 0.191406 9.164062 0.390625 7.65625 0.390625 C 6.40625 0.390625 5.34375 0.210938 4.46875 -0.140625 C 3.59375 -0.503906 2.882812 -1 2.34375 -1.625 C 1.800781 -2.257812 1.410156 -2.972656 1.171875 -3.765625 C 0.929688 -4.554688 0.8125 -5.375 0.8125 -6.21875 C 0.8125 -7.425781 1.050781 -8.523438 1.53125 -9.515625 C 2.007812 -10.515625 2.753906 -11.3125 3.765625 -11.90625 C 4.773438 -12.5 6.070312 -12.796875 7.65625 -12.796875 C 8.9375 -12.796875 10 -12.613281 10.84375 -12.25 C 11.695312 -11.882812 12.378906 -11.382812 12.890625 -10.75 C 13.398438 -10.125 13.765625 -9.414062 13.984375 -8.625 C 14.210938 -7.832031 14.328125 -7.007812 14.328125 -6.15625 C 14.328125 -5.738281 14.304688 -5.390625 14.265625 -5.109375 L 4.953125 -5.109375 C 5.085938 -4.117188 5.390625 -3.425781 5.859375 -3.03125 C 6.335938 -2.644531 6.972656 -2.453125 7.765625 -2.453125 Z M 7.71875 -10 C 6.957031 -10 6.347656 -9.816406 5.890625 -9.453125 C 5.429688 -9.097656 5.140625 -8.476562 5.015625 -7.59375 L 10.296875 -7.59375 C 10.222656 -8.363281 9.976562 -8.957031 9.5625 -9.375 C 9.15625 -9.789062 8.539062 -10 7.71875 -10 Z M 7.71875 -10 "/></g></g></g><g fill="#ffffff" fill-opacity="1"><g transform="translate(47.049721, 19.331733)"><g><path d="M 12.5 -8.5 C 13.195312 -8.382812 13.820312 -8.179688 14.375 -7.890625 C 14.925781 -7.609375 15.363281 -7.195312 15.6875 -6.65625 C 16.019531 -6.125 16.1875 -5.398438 16.1875 -4.484375 C 16.1875 -3.078125 15.726562 -1.976562 14.8125 -1.1875 C 13.894531 -0.394531 12.550781 0 10.78125 0 L 1.34375 0 L 1.34375 -16.484375 L 10.953125 -16.484375 C 12.128906 -16.484375 13.082031 -16.300781 13.8125 -15.9375 C 14.550781 -15.582031 15.085938 -15.09375 15.421875 -14.46875 C 15.765625 -13.851562 15.9375 -13.171875 15.9375 -12.421875 C 15.9375 -11.210938 15.609375 -10.3125 14.953125 -9.71875 C 14.304688 -9.125 13.488281 -8.71875 12.5 -8.5 Z M 9.578125 -13.21875 L 5.703125 -13.21875 L 5.703125 -9.8125 L 9.546875 -9.8125 C 10.253906 -9.8125 10.734375 -9.976562 10.984375 -10.3125 C 11.242188 -10.644531 11.375 -11.050781 11.375 -11.53125 C 11.375 -12.0625 11.234375 -12.472656 10.953125 -12.765625 C 10.671875 -13.066406 10.210938 -13.21875 9.578125 -13.21875 Z M 9.671875 -3.265625 C 10.410156 -3.265625 10.921875 -3.4375 11.203125 -3.78125 C 11.484375 -4.132812 11.625 -4.578125 11.625 -5.109375 C 11.625 -5.640625 11.472656 -6.082031 11.171875 -6.4375 C 10.867188 -6.789062 10.328125 -6.96875 9.546875 -6.96875 L 5.703125 -6.96875 L 5.703125 -3.265625 Z M 9.671875 -3.265625 "/></g></g></g><g fill="#ffffff" fill-opacity="1"><g transform="translate(62.996598, 19.331733)"><g><path d="M 5.0625 0.328125 C 3.820312 0.328125 2.820312 0 2.0625 -0.65625 C 1.3125 -1.3125 0.9375 -2.179688 0.9375 -3.265625 C 0.9375 -3.929688 1.050781 -4.519531 1.28125 -5.03125 C 1.519531 -5.539062 1.941406 -5.972656 2.546875 -6.328125 C 3.160156 -6.691406 4.039062 -6.960938 5.1875 -7.140625 L 7.984375 -7.640625 C 8.566406 -7.734375 8.953125 -7.867188 9.140625 -8.046875 C 9.328125 -8.222656 9.421875 -8.46875 9.421875 -8.78125 C 9.421875 -9.15625 9.285156 -9.445312 9.015625 -9.65625 C 8.753906 -9.863281 8.269531 -9.96875 7.5625 -9.96875 C 6.101562 -9.96875 5.359375 -9.40625 5.328125 -8.28125 L 1.1875 -8.28125 C 1.257812 -9.601562 1.84375 -10.6875 2.9375 -11.53125 C 4.039062 -12.375 5.566406 -12.796875 7.515625 -12.796875 C 9.484375 -12.796875 10.945312 -12.410156 11.90625 -11.640625 C 12.875 -10.867188 13.359375 -9.773438 13.359375 -8.359375 L 13.359375 -3.421875 C 13.359375 -2.160156 13.4375 -1.019531 13.59375 0 L 9.921875 0 C 9.847656 -0.363281 9.796875 -0.753906 9.765625 -1.171875 C 9.734375 -1.597656 9.71875 -2.066406 9.71875 -2.578125 C 9.40625 -1.671875 8.863281 -0.957031 8.09375 -0.4375 C 7.320312 0.0703125 6.3125 0.328125 5.0625 0.328125 Z M 6.671875 -2.453125 C 7.484375 -2.453125 8.144531 -2.738281 8.65625 -3.3125 C 9.164062 -3.882812 9.421875 -4.722656 9.421875 -5.828125 L 9.421875 -6.296875 C 9.117188 -6.078125 8.816406 -5.914062 8.515625 -5.8125 C 8.210938 -5.707031 7.867188 -5.601562 7.484375 -5.5 L 6.765625 -5.328125 C 6.171875 -5.179688 5.75 -4.988281 5.5 -4.75 C 5.257812 -4.519531 5.140625 -4.191406 5.140625 -3.765625 C 5.140625 -3.335938 5.285156 -3.007812 5.578125 -2.78125 C 5.878906 -2.5625 6.242188 -2.453125 6.671875 -2.453125 Z M 6.671875 -2.453125 "/></g></g></g><g fill="#ffffff" fill-opacity="1"><g transform="translate(76.512967, 19.331733)"><g><path d="M 0.546875 -4 L 4.40625 -4 C 4.457031 -3.476562 4.691406 -3.039062 5.109375 -2.6875 C 5.535156 -2.332031 6.144531 -2.15625 6.9375 -2.15625 C 7.632812 -2.15625 8.128906 -2.257812 8.421875 -2.46875 C 8.722656 -2.675781 8.875 -2.960938 8.875 -3.328125 C 8.875 -3.640625 8.78125 -3.914062 8.59375 -4.15625 C 8.40625 -4.394531 7.945312 -4.554688 7.21875 -4.640625 L 4.59375 -4.9375 C 3.382812 -5.070312 2.460938 -5.457031 1.828125 -6.09375 C 1.203125 -6.726562 0.890625 -7.582031 0.890625 -8.65625 C 0.890625 -9.644531 1.144531 -10.441406 1.65625 -11.046875 C 2.175781 -11.648438 2.875 -12.09375 3.75 -12.375 C 4.632812 -12.65625 5.632812 -12.796875 6.75 -12.796875 C 8.46875 -12.796875 9.875 -12.476562 10.96875 -11.84375 C 12.070312 -11.21875 12.679688 -10.179688 12.796875 -8.734375 L 8.921875 -8.734375 C 8.859375 -9.210938 8.648438 -9.585938 8.296875 -9.859375 C 7.953125 -10.128906 7.441406 -10.265625 6.765625 -10.265625 C 6.054688 -10.265625 5.546875 -10.148438 5.234375 -9.921875 C 4.929688 -9.691406 4.78125 -9.398438 4.78125 -9.046875 C 4.78125 -8.785156 4.878906 -8.550781 5.078125 -8.34375 C 5.273438 -8.132812 5.664062 -8 6.25 -7.9375 L 8.796875 -7.6875 C 10.273438 -7.539062 11.332031 -7.15625 11.96875 -6.53125 C 12.613281 -5.914062 12.9375 -5.007812 12.9375 -3.8125 C 12.9375 -3.039062 12.75 -2.332031 12.375 -1.6875 C 12.007812 -1.039062 11.382812 -0.53125 10.5 -0.15625 C 9.613281 0.207031 8.40625 0.390625 6.875 0.390625 C 5.363281 0.390625 4.148438 0.1875 3.234375 -0.21875 C 2.316406 -0.632812 1.644531 -1.175781 1.21875 -1.84375 C 0.800781 -2.519531 0.578125 -3.238281 0.546875 -4 Z M 0.546875 -4 "/></g></g></g><g clip-path="url(#7a6e7c6c1e)"><g fill="#ffffff" fill-opacity="1"><g transform="translate(88.987691, 19.331733)"><g><path d="M 7.765625 -2.453125 C 8.390625 -2.453125 8.898438 -2.578125 9.296875 -2.828125 C 9.691406 -3.078125 9.972656 -3.382812 10.140625 -3.75 L 14.28125 -3.75 C 14.144531 -3.03125 13.84375 -2.359375 13.375 -1.734375 C 12.90625 -1.109375 12.210938 -0.597656 11.296875 -0.203125 C 10.378906 0.191406 9.164062 0.390625 7.65625 0.390625 C 6.40625 0.390625 5.34375 0.210938 4.46875 -0.140625 C 3.59375 -0.503906 2.882812 -1 2.34375 -1.625 C 1.800781 -2.257812 1.410156 -2.972656 1.171875 -3.765625 C 0.929688 -4.554688 0.8125 -5.375 0.8125 -6.21875 C 0.8125 -7.425781 1.050781 -8.523438 1.53125 -9.515625 C 2.007812 -10.515625 2.753906 -11.3125 3.765625 -11.90625 C 4.773438 -12.5 6.070312 -12.796875 7.65625 -12.796875 C 8.9375 -12.796875 10 -12.613281 10.84375 -12.25 C 11.695312 -11.882812 12.378906 -11.382812 12.890625 -10.75 C 13.398438 -10.125 13.765625 -9.414062 13.984375 -8.625 C 14.210938 -7.832031 14.328125 -7.007812 14.328125 -6.15625 C 14.328125 -5.738281 14.304688 -5.390625 14.265625 -5.109375 L 4.953125 -5.109375 C 5.085938 -4.117188 5.390625 -3.425781 5.859375 -3.03125 C 6.335938 -2.644531 6.972656 -2.453125 7.765625 -2.453125 Z M 7.71875 -10 C 6.957031 -10 6.347656 -9.816406 5.890625 -9.453125 C 5.429688 -9.097656 5.140625 -8.476562 5.015625 -7.59375 L 10.296875 -7.59375 C 10.222656 -8.363281 9.976562 -8.957031 9.5625 -9.375 C 9.15625 -9.789062 8.539062 -10 7.71875 -10 Z M 7.71875 -10 "/></g></g></g></g></g></g><g transform="matrix(1, 0, 0, 1, 142, 362)"><g clip-path="url(#1d81272f18)"><g fill="#ffffff" fill-opacity="1"><g transform="translate(0.614588, 14.219217)"><g><path d="M 9.109375 -11.671875 L 11.125 -11.671875 L 6.6875 -3.859375 L 6.6875 0 L 4.875 0 L 4.875 -3.859375 L 0.4375 -11.671875 L 2.484375 -11.671875 L 4.859375 -7.15625 C 5.015625 -6.863281 5.164062 -6.570312 5.3125 -6.28125 C 5.46875 -6 5.617188 -5.71875 5.765625 -5.4375 C 5.929688 -5.71875 6.09375 -6 6.25 -6.28125 C 6.414062 -6.570312 6.570312 -6.863281 6.71875 -7.15625 Z M 9.109375 -11.671875 "/></g></g></g><g fill="#ffffff" fill-opacity="1"><g transform="translate(11.598266, 14.219217)"><g><path d="M 5.328125 0.28125 C 4.316406 0.28125 3.472656 0.0703125 2.796875 -0.34375 C 2.128906 -0.769531 1.628906 -1.335938 1.296875 -2.046875 C 0.972656 -2.753906 0.8125 -3.539062 0.8125 -4.40625 C 0.8125 -5.257812 0.972656 -6.035156 1.296875 -6.734375 C 1.628906 -7.441406 2.128906 -8.003906 2.796875 -8.421875 C 3.472656 -8.835938 4.316406 -9.046875 5.328125 -9.046875 C 6.347656 -9.046875 7.191406 -8.835938 7.859375 -8.421875 C 8.523438 -8.003906 9.023438 -7.441406 9.359375 -6.734375 C 9.691406 -6.035156 9.859375 -5.257812 9.859375 -4.40625 C 9.859375 -3.550781 9.691406 -2.765625 9.359375 -2.046875 C 9.023438 -1.335938 8.523438 -0.769531 7.859375 -0.34375 C 7.191406 0.0703125 6.347656 0.28125 5.328125 0.28125 Z M 2.578125 -4.390625 C 2.578125 -3.210938 2.796875 -2.375 3.234375 -1.875 C 3.679688 -1.375 4.378906 -1.125 5.328125 -1.125 C 6.273438 -1.125 6.972656 -1.375 7.421875 -1.875 C 7.867188 -2.375 8.09375 -3.210938 8.09375 -4.390625 C 8.09375 -5.554688 7.867188 -6.390625 7.421875 -6.890625 C 6.972656 -7.398438 6.273438 -7.65625 5.328125 -7.65625 C 4.378906 -7.65625 3.679688 -7.398438 3.234375 -6.890625 C 2.796875 -6.390625 2.578125 -5.554688 2.578125 -4.390625 Z M 2.578125 -4.390625 "/></g></g></g><g fill="#ffffff" fill-opacity="1"><g transform="translate(21.687111, 14.219217)"><g><path d="M 7.421875 -8.78125 L 9.171875 -8.78125 L 9.171875 0 L 7.421875 0 L 7.421875 -1.90625 C 7.160156 -1.269531 6.785156 -0.742188 6.296875 -0.328125 C 5.804688 0.078125 5.144531 0.28125 4.3125 0.28125 C 3.144531 0.28125 2.304688 -0.0234375 1.796875 -0.640625 C 1.296875 -1.265625 1.046875 -2.148438 1.046875 -3.296875 L 1.046875 -8.78125 L 2.8125 -8.78125 L 2.8125 -3.453125 C 2.8125 -2.847656 2.898438 -2.378906 3.078125 -2.046875 C 3.253906 -1.710938 3.5 -1.484375 3.8125 -1.359375 C 4.125 -1.234375 4.472656 -1.171875 4.859375 -1.171875 C 5.640625 -1.171875 6.257812 -1.492188 6.71875 -2.140625 C 7.1875 -2.785156 7.421875 -3.765625 7.421875 -5.078125 Z M 7.421875 -8.78125 "/></g></g></g><g fill="#ffffff" fill-opacity="1"><g transform="translate(31.512763, 14.219217)"><g><path d="M 6.078125 -8.90625 L 6.328125 -8.90625 L 6.328125 -7.21875 L 5.890625 -7.21875 C 5.109375 -7.21875 4.503906 -7.0625 4.078125 -6.75 C 3.660156 -6.4375 3.375 -5.988281 3.21875 -5.40625 C 3.0625 -4.832031 2.984375 -4.144531 2.984375 -3.34375 L 2.984375 0 L 1.234375 0 L 1.234375 -8.78125 L 2.96875 -8.78125 L 2.96875 -6.65625 C 3.238281 -7.3125 3.617188 -7.847656 4.109375 -8.265625 C 4.597656 -8.691406 5.253906 -8.90625 6.078125 -8.90625 Z M 6.078125 -8.90625 "/></g></g></g><g fill="#ffffff" fill-opacity="1"><g transform="translate(37.811711, 14.219217)"><g/></g></g><g fill="#ffffff" fill-opacity="1"><g transform="translate(41.548972, 14.219217)"><g><path d="M 6.296875 -6.75 L 11.1875 -0.09375 L 11.1875 0 L 9 0 L 5.09375 -5.453125 L 2.953125 -3.1875 L 2.953125 0 L 1.140625 0 L 1.140625 -11.671875 L 2.953125 -11.671875 L 2.953125 -5.484375 L 8.5625 -11.671875 L 10.9375 -11.671875 Z M 6.296875 -6.75 "/></g></g></g><g fill="#ffffff" fill-opacity="1"><g transform="translate(52.953752, 14.219217)"><g><path d="M 6.15625 -9.046875 C 7.320312 -9.046875 8.144531 -8.734375 8.625 -8.109375 C 9.113281 -7.492188 9.359375 -6.613281 9.359375 -5.46875 L 9.359375 0 L 7.59375 0 L 7.59375 -5.3125 C 7.59375 -5.9375 7.507812 -6.410156 7.34375 -6.734375 C 7.175781 -7.066406 6.945312 -7.289062 6.65625 -7.40625 C 6.363281 -7.53125 6.03125 -7.59375 5.65625 -7.59375 C 4.800781 -7.59375 4.140625 -7.289062 3.671875 -6.6875 C 3.210938 -6.09375 2.984375 -5.097656 2.984375 -3.703125 L 2.984375 0 L 1.234375 0 L 1.234375 -8.78125 L 2.984375 -8.78125 L 2.984375 -6.8125 C 3.253906 -7.46875 3.640625 -8.003906 4.140625 -8.421875 C 4.640625 -8.835938 5.3125 -9.046875 6.15625 -9.046875 Z M 6.15625 -9.046875 "/></g></g></g><g fill="#ffffff" fill-opacity="1"><g transform="translate(62.779404, 14.219217)"><g><path d="M 5.328125 0.28125 C 4.316406 0.28125 3.472656 0.0703125 2.796875 -0.34375 C 2.128906 -0.769531 1.628906 -1.335938 1.296875 -2.046875 C 0.972656 -2.753906 0.8125 -3.539062 0.8125 -4.40625 C 0.8125 -5.257812 0.972656 -6.035156 1.296875 -6.734375 C 1.628906 -7.441406 2.128906 -8.003906 2.796875 -8.421875 C 3.472656 -8.835938 4.316406 -9.046875 5.328125 -9.046875 C 6.347656 -9.046875 7.191406 -8.835938 7.859375 -8.421875 C 8.523438 -8.003906 9.023438 -7.441406 9.359375 -6.734375 C 9.691406 -6.035156 9.859375 -5.257812 9.859375 -4.40625 C 9.859375 -3.550781 9.691406 -2.765625 9.359375 -2.046875 C 9.023438 -1.335938 8.523438 -0.769531 7.859375 -0.34375 C 7.191406 0.0703125 6.347656 0.28125 5.328125 0.28125 Z M 2.578125 -4.390625 C 2.578125 -3.210938 2.796875 -2.375 3.234375 -1.875 C 3.679688 -1.375 4.378906 -1.125 5.328125 -1.125 C 6.273438 -1.125 6.972656 -1.375 7.421875 -1.875 C 7.867188 -2.375 8.09375 -3.210938 8.09375 -4.390625 C 8.09375 -5.554688 7.867188 -6.390625 7.421875 -6.890625 C 6.972656 -7.398438 6.273438 -7.65625 5.328125 -7.65625 C 4.378906 -7.65625 3.679688 -7.398438 3.234375 -6.890625 C 2.796875 -6.390625 2.578125 -5.554688 2.578125 -4.390625 Z M 2.578125 -4.390625 "/></g></g></g><g fill="#ffffff" fill-opacity="1"><g transform="translate(72.868249, 14.219217)"><g><path d="M 13.375 -8.78125 L 15.078125 -8.78125 L 12.4375 0 L 9.953125 0 L 7.75 -6.671875 L 5.5625 0 L 3.078125 0 L 0.4375 -8.78125 L 2.25 -8.78125 L 4.40625 -1.3125 L 6.9375 -8.78125 L 8.6875 -8.78125 L 11.21875 -1.3125 Z M 13.375 -8.78125 "/></g></g></g><g fill="#ffffff" fill-opacity="1"><g transform="translate(87.799733, 14.219217)"><g><path d="M 1.234375 0 L 1.234375 -12.28125 L 2.984375 -12.28125 L 2.984375 0 Z M 1.234375 0 "/></g></g></g><g fill="#ffffff" fill-opacity="1"><g transform="translate(91.431716, 14.219217)"><g><path d="M 5.296875 -1.015625 C 6.097656 -1.015625 6.691406 -1.171875 7.078125 -1.484375 C 7.472656 -1.804688 7.726562 -2.195312 7.84375 -2.65625 L 9.453125 -2.65625 C 9.421875 -2.34375 9.328125 -2.015625 9.171875 -1.671875 C 9.015625 -1.335938 8.773438 -1.019531 8.453125 -0.71875 C 8.128906 -0.425781 7.707031 -0.1875 7.1875 0 C 6.664062 0.1875 6.019531 0.28125 5.25 0.28125 C 4.207031 0.28125 3.359375 0.0703125 2.703125 -0.34375 C 2.046875 -0.769531 1.566406 -1.335938 1.265625 -2.046875 C 0.960938 -2.753906 0.8125 -3.539062 0.8125 -4.40625 C 0.8125 -5.257812 0.96875 -6.035156 1.28125 -6.734375 C 1.601562 -7.441406 2.09375 -8.003906 2.75 -8.421875 C 3.414062 -8.835938 4.25 -9.046875 5.25 -9.046875 C 6.1875 -9.046875 6.96875 -8.847656 7.59375 -8.453125 C 8.21875 -8.054688 8.6875 -7.519531 9 -6.84375 C 9.3125 -6.164062 9.46875 -5.40625 9.46875 -4.5625 C 9.46875 -4.445312 9.46875 -4.335938 9.46875 -4.234375 C 9.46875 -4.128906 9.457031 -4.015625 9.4375 -3.890625 L 2.53125 -3.890625 C 2.570312 -3.160156 2.71875 -2.585938 2.96875 -2.171875 C 3.21875 -1.753906 3.539062 -1.457031 3.9375 -1.28125 C 4.34375 -1.101562 4.796875 -1.015625 5.296875 -1.015625 Z M 5.265625 -7.75 C 4.515625 -7.75 3.898438 -7.5625 3.421875 -7.1875 C 2.941406 -6.8125 2.648438 -6.140625 2.546875 -5.171875 L 7.796875 -5.171875 C 7.742188 -6.066406 7.503906 -6.71875 7.078125 -7.125 C 6.648438 -7.539062 6.046875 -7.75 5.265625 -7.75 Z M 5.265625 -7.75 "/></g></g></g><g fill="#ffffff" fill-opacity="1"><g transform="translate(101.064364, 14.219217)"><g><path d="M 8.140625 -12.28125 L 9.890625 -12.28125 L 9.890625 0 L 8.140625 0 L 8.140625 -1.515625 C 7.847656 -0.941406 7.429688 -0.5 6.890625 -0.1875 C 6.359375 0.125 5.691406 0.28125 4.890625 0.28125 C 3.953125 0.28125 3.179688 0.0703125 2.578125 -0.34375 C 1.972656 -0.769531 1.523438 -1.335938 1.234375 -2.046875 C 0.953125 -2.753906 0.8125 -3.535156 0.8125 -4.390625 C 0.8125 -5.253906 0.953125 -6.035156 1.234375 -6.734375 C 1.523438 -7.441406 1.972656 -8.003906 2.578125 -8.421875 C 3.179688 -8.835938 3.953125 -9.046875 4.890625 -9.046875 C 5.691406 -9.046875 6.359375 -8.890625 6.890625 -8.578125 C 7.429688 -8.273438 7.847656 -7.835938 8.140625 -7.265625 Z M 5.265625 -1.125 C 6.191406 -1.125 6.898438 -1.382812 7.390625 -1.90625 C 7.890625 -2.4375 8.140625 -3.265625 8.140625 -4.390625 C 8.140625 -5.515625 7.890625 -6.335938 7.390625 -6.859375 C 6.898438 -7.390625 6.191406 -7.65625 5.265625 -7.65625 C 4.296875 -7.65625 3.601562 -7.378906 3.1875 -6.828125 C 2.78125 -6.285156 2.578125 -5.472656 2.578125 -4.390625 C 2.578125 -3.296875 2.78125 -2.476562 3.1875 -1.9375 C 3.601562 -1.394531 4.296875 -1.125 5.265625 -1.125 Z M 5.265625 -1.125 "/></g></g></g><g fill="#ffffff" fill-opacity="1"><g transform="translate(111.574311, 14.219217)"><g><path d="M 8.09375 -8.78125 L 9.84375 -8.78125 L 9.84375 -0.03125 C 9.84375 1.15625 9.5 2.070312 8.8125 2.71875 C 8.132812 3.375 6.972656 3.703125 5.328125 3.703125 C 3.992188 3.703125 2.953125 3.425781 2.203125 2.875 C 1.460938 2.320312 1.050781 1.519531 0.96875 0.46875 L 2.71875 0.46875 C 2.78125 1.050781 3.015625 1.507812 3.421875 1.84375 C 3.828125 2.175781 4.472656 2.34375 5.359375 2.34375 C 6.316406 2.34375 7.007812 2.160156 7.4375 1.796875 C 7.875 1.441406 8.09375 0.8125 8.09375 -0.09375 L 8.09375 -1.765625 C 7.519531 -0.742188 6.46875 -0.234375 4.9375 -0.234375 C 4 -0.234375 3.222656 -0.414062 2.609375 -0.78125 C 1.992188 -1.15625 1.535156 -1.671875 1.234375 -2.328125 C 0.941406 -2.992188 0.796875 -3.753906 0.796875 -4.609375 C 0.796875 -5.472656 0.941406 -6.234375 1.234375 -6.890625 C 1.535156 -7.546875 1.992188 -8.0625 2.609375 -8.4375 C 3.222656 -8.8125 4 -9 4.9375 -9 C 5.707031 -9 6.351562 -8.851562 6.875 -8.5625 C 7.394531 -8.28125 7.800781 -7.882812 8.09375 -7.375 Z M 5.359375 -1.578125 C 6.273438 -1.578125 6.957031 -1.8125 7.40625 -2.28125 C 7.863281 -2.757812 8.09375 -3.535156 8.09375 -4.609375 C 8.09375 -5.691406 7.863281 -6.46875 7.40625 -6.9375 C 6.957031 -7.414062 6.273438 -7.65625 5.359375 -7.65625 C 4.378906 -7.65625 3.664062 -7.425781 3.21875 -6.96875 C 2.78125 -6.507812 2.5625 -5.722656 2.5625 -4.609375 C 2.5625 -3.503906 2.78125 -2.722656 3.21875 -2.265625 C 3.664062 -1.804688 4.378906 -1.578125 5.359375 -1.578125 Z M 5.359375 -1.578125 "/></g></g></g><g clip-path="url(#6be7f7b71e)"><g fill="#ffffff" fill-opacity="1"><g transform="translate(122.031604, 14.219217)"><g><path d="M 5.296875 -1.015625 C 6.097656 -1.015625 6.691406 -1.171875 7.078125 -1.484375 C 7.472656 -1.804688 7.726562 -2.195312 7.84375 -2.65625 L 9.453125 -2.65625 C 9.421875 -2.34375 9.328125 -2.015625 9.171875 -1.671875 C 9.015625 -1.335938 8.773438 -1.019531 8.453125 -0.71875 C 8.128906 -0.425781 7.707031 -0.1875 7.1875 0 C 6.664062 0.1875 6.019531 0.28125 5.25 0.28125 C 4.207031 0.28125 3.359375 0.0703125 2.703125 -0.34375 C 2.046875 -0.769531 1.566406 -1.335938 1.265625 -2.046875 C 0.960938 -2.753906 0.8125 -3.539062 0.8125 -4.40625 C 0.8125 -5.257812 0.96875 -6.035156 1.28125 -6.734375 C 1.601562 -7.441406 2.09375 -8.003906 2.75 -8.421875 C 3.414062 -8.835938 4.25 -9.046875 5.25 -9.046875 C 6.1875 -9.046875 6.96875 -8.847656 7.59375 -8.453125 C 8.21875 -8.054688 8.6875 -7.519531 9 -6.84375 C 9.3125 -6.164062 9.46875 -5.40625 9.46875 -4.5625 C 9.46875 -4.445312 9.46875 -4.335938 9.46875 -4.234375 C 9.46875 -4.128906 9.457031 -4.015625 9.4375 -3.890625 L 2.53125 -3.890625 C 2.570312 -3.160156 2.71875 -2.585938 2.96875 -2.171875 C 3.21875 -1.753906 3.539062 -1.457031 3.9375 -1.28125 C 4.34375 -1.101562 4.796875 -1.015625 5.296875 -1.015625 Z M 5.265625 -7.75 C 4.515625 -7.75 3.898438 -7.5625 3.421875 -7.1875 C 2.941406 -6.8125 2.648438 -6.140625 2.546875 -5.171875 L 7.796875 -5.171875 C 7.742188 -6.066406 7.503906 -6.71875 7.078125 -7.125 C 6.648438 -7.539062 6.046875 -7.75 5.265625 -7.75 Z M 5.265625 -7.75 "/></g></g></g></g><g fill="#ffffff" fill-opacity="1"><g transform="translate(15.653007, 34.32375)"><g><path d="M 10.09375 -3.015625 L 10.09375 -1.90625 C 10.09375 -1.4375 10.117188 -1.039062 10.171875 -0.71875 C 10.234375 -0.40625 10.285156 -0.164062 10.328125 0 L 8.5625 0 C 8.519531 -0.15625 8.46875 -0.382812 8.40625 -0.6875 C 8.351562 -0.988281 8.328125 -1.375 8.328125 -1.84375 L 8.328125 -2.75 C 8.328125 -3.59375 8.109375 -4.1875 7.671875 -4.53125 C 7.242188 -4.875 6.648438 -5.046875 5.890625 -5.046875 L 2.953125 -5.046875 L 2.953125 0 L 1.140625 0 L 1.140625 -11.671875 L 6.71875 -11.671875 C 7.9375 -11.671875 8.863281 -11.382812 9.5 -10.8125 C 10.132812 -10.25 10.453125 -9.484375 10.453125 -8.515625 C 10.453125 -7.710938 10.234375 -7.054688 9.796875 -6.546875 C 9.367188 -6.046875 8.828125 -5.710938 8.171875 -5.546875 C 8.578125 -5.421875 8.914062 -5.265625 9.1875 -5.078125 C 9.46875 -4.898438 9.6875 -4.648438 9.84375 -4.328125 C 10.007812 -4.003906 10.09375 -3.566406 10.09375 -3.015625 Z M 6.59375 -6.390625 C 7.34375 -6.390625 7.859375 -6.566406 8.140625 -6.921875 C 8.421875 -7.273438 8.5625 -7.765625 8.5625 -8.390625 C 8.5625 -8.960938 8.398438 -9.410156 8.078125 -9.734375 C 7.753906 -10.054688 7.238281 -10.21875 6.53125 -10.21875 L 2.953125 -10.21875 L 2.953125 -6.390625 Z M 6.59375 -6.390625 "/></g></g></g><g fill="#ffffff" fill-opacity="1"><g transform="translate(26.584049, 34.32375)"><g><path d="M 1 -10.09375 L 1 -11.671875 L 3.21875 -11.671875 L 3.21875 -10.09375 Z M 1.234375 0 L 1.234375 -8.78125 L 2.984375 -8.78125 L 2.984375 0 Z M 1.234375 0 "/></g></g></g><g clip-path="url(#570ce41e36)"><g fill="#ffffff" fill-opacity="1"><g transform="translate(30.216032, 34.32375)"><g><path d="M 8.09375 -8.78125 L 9.84375 -8.78125 L 9.84375 -0.03125 C 9.84375 1.15625 9.5 2.070312 8.8125 2.71875 C 8.132812 3.375 6.972656 3.703125 5.328125 3.703125 C 3.992188 3.703125 2.953125 3.425781 2.203125 2.875 C 1.460938 2.320312 1.050781 1.519531 0.96875 0.46875 L 2.71875 0.46875 C 2.78125 1.050781 3.015625 1.507812 3.421875 1.84375 C 3.828125 2.175781 4.472656 2.34375 5.359375 2.34375 C 6.316406 2.34375 7.007812 2.160156 7.4375 1.796875 C 7.875 1.441406 8.09375 0.8125 8.09375 -0.09375 L 8.09375 -1.765625 C 7.519531 -0.742188 6.46875 -0.234375 4.9375 -0.234375 C 4 -0.234375 3.222656 -0.414062 2.609375 -0.78125 C 1.992188 -1.15625 1.535156 -1.671875 1.234375 -2.328125 C 0.941406 -2.992188 0.796875 -3.753906 0.796875 -4.609375 C 0.796875 -5.472656 0.941406 -6.234375 1.234375 -6.890625 C 1.535156 -7.546875 1.992188 -8.0625 2.609375 -8.4375 C 3.222656 -8.8125 4 -9 4.9375 -9 C 5.707031 -9 6.351562 -8.851562 6.875 -8.5625 C 7.394531 -8.28125 7.800781 -7.882812 8.09375 -7.375 Z M 5.359375 -1.578125 C 6.273438 -1.578125 6.957031 -1.8125 7.40625 -2.28125 C 7.863281 -2.757812 8.09375 -3.535156 8.09375 -4.609375 C 8.09375 -5.691406 7.863281 -6.46875 7.40625 -6.9375 C 6.957031 -7.414062 6.273438 -7.65625 5.359375 -7.65625 C 4.378906 -7.65625 3.664062 -7.425781 3.21875 -6.96875 C 2.78125 -6.507812 2.5625 -5.722656 2.5625 -4.609375 C 2.5625 -3.503906 2.78125 -2.722656 3.21875 -2.265625 C 3.664062 -1.804688 4.378906 -1.578125 5.359375 -1.578125 Z M 5.359375 -1.578125 "/></g></g></g></g><g fill="#ffffff" fill-opacity="1"><g transform="translate(40.673336, 34.32375)"><g><path d="M 6.15625 -9.046875 C 7.320312 -9.046875 8.144531 -8.734375 8.625 -8.109375 C 9.113281 -7.492188 9.359375 -6.613281 9.359375 -5.46875 L 9.359375 0 L 7.59375 0 L 7.59375 -5.3125 C 7.59375 -5.9375 7.507812 -6.410156 7.34375 -6.734375 C 7.175781 -7.066406 6.945312 -7.289062 6.65625 -7.40625 C 6.363281 -7.53125 6.03125 -7.59375 5.65625 -7.59375 C 4.800781 -7.59375 4.140625 -7.289062 3.671875 -6.6875 C 3.210938 -6.09375 2.984375 -5.097656 2.984375 -3.703125 L 2.984375 0 L 1.234375 0 L 1.234375 -12.28125 L 2.984375 -12.28125 L 2.984375 -6.8125 C 3.253906 -7.46875 3.640625 -8.003906 4.140625 -8.421875 C 4.640625 -8.835938 5.3125 -9.046875 6.15625 -9.046875 Z M 6.15625 -9.046875 "/></g></g></g><g fill="#ffffff" fill-opacity="1"><g transform="translate(50.498989, 34.32375)"><g><path d="M 4.609375 0 C 3.910156 0 3.367188 -0.09375 2.984375 -0.28125 C 2.597656 -0.46875 2.332031 -0.75 2.1875 -1.125 C 2.039062 -1.507812 1.96875 -1.992188 1.96875 -2.578125 L 1.96875 -7.421875 L 0.296875 -7.421875 L 0.296875 -8.328125 L 2.125 -8.96875 L 2.84375 -10.75 L 3.71875 -10.75 L 3.71875 -8.78125 L 6.53125 -8.78125 L 6.53125 -7.421875 L 3.71875 -7.421875 L 3.71875 -1.40625 L 6.359375 -1.40625 L 6.359375 0 Z M 4.609375 0 "/></g></g></g><g fill="#ffffff" fill-opacity="1"><g transform="translate(56.938304, 34.32375)"><g/></g></g><g fill="#ffffff" fill-opacity="1"><g transform="translate(60.675564, 34.32375)"><g><path d="M 5.328125 0.28125 C 4.316406 0.28125 3.472656 0.0703125 2.796875 -0.34375 C 2.128906 -0.769531 1.628906 -1.335938 1.296875 -2.046875 C 0.972656 -2.753906 0.8125 -3.539062 0.8125 -4.40625 C 0.8125 -5.257812 0.972656 -6.035156 1.296875 -6.734375 C 1.628906 -7.441406 2.128906 -8.003906 2.796875 -8.421875 C 3.472656 -8.835938 4.316406 -9.046875 5.328125 -9.046875 C 6.347656 -9.046875 7.191406 -8.835938 7.859375 -8.421875 C 8.523438 -8.003906 9.023438 -7.441406 9.359375 -6.734375 C 9.691406 -6.035156 9.859375 -5.257812 9.859375 -4.40625 C 9.859375 -3.550781 9.691406 -2.765625 9.359375 -2.046875 C 9.023438 -1.335938 8.523438 -0.769531 7.859375 -0.34375 C 7.191406 0.0703125 6.347656 0.28125 5.328125 0.28125 Z M 2.578125 -4.390625 C 2.578125 -3.210938 2.796875 -2.375 3.234375 -1.875 C 3.679688 -1.375 4.378906 -1.125 5.328125 -1.125 C 6.273438 -1.125 6.972656 -1.375 7.421875 -1.875 C 7.867188 -2.375 8.09375 -3.210938 8.09375 -4.390625 C 8.09375 -5.554688 7.867188 -6.390625 7.421875 -6.890625 C 6.972656 -7.398438 6.273438 -7.65625 5.328125 -7.65625 C 4.378906 -7.65625 3.679688 -7.398438 3.234375 -6.890625 C 2.796875 -6.390625 2.578125 -5.554688 2.578125 -4.390625 Z M 2.578125 -4.390625 "/></g></g></g><g fill="#ffffff" fill-opacity="1"><g transform="translate(70.764409, 34.32375)"><g><path d="M 6.15625 -9.046875 C 7.320312 -9.046875 8.144531 -8.734375 8.625 -8.109375 C 9.113281 -7.492188 9.359375 -6.613281 9.359375 -5.46875 L 9.359375 0 L 7.59375 0 L 7.59375 -5.3125 C 7.59375 -5.9375 7.507812 -6.410156 7.34375 -6.734375 C 7.175781 -7.066406 6.945312 -7.289062 6.65625 -7.40625 C 6.363281 -7.53125 6.03125 -7.59375 5.65625 -7.59375 C 4.800781 -7.59375 4.140625 -7.289062 3.671875 -6.6875 C 3.210938 -6.09375 2.984375 -5.097656 2.984375 -3.703125 L 2.984375 0 L 1.234375 0 L 1.234375 -8.78125 L 2.984375 -8.78125 L 2.984375 -6.8125 C 3.253906 -7.46875 3.640625 -8.003906 4.140625 -8.421875 C 4.640625 -8.835938 5.3125 -9.046875 6.15625 -9.046875 Z M 6.15625 -9.046875 "/></g></g></g><g fill="#ffffff" fill-opacity="1"><g transform="translate(80.590061, 34.32375)"><g/></g></g><g fill="#ffffff" fill-opacity="1"><g transform="translate(84.327322, 34.32375)"><g><path d="M 6.859375 0.296875 C 5.492188 0.296875 4.375 0.0234375 3.5 -0.515625 C 2.625 -1.054688 1.984375 -1.789062 1.578125 -2.71875 C 1.171875 -3.644531 0.96875 -4.6875 0.96875 -5.84375 C 0.96875 -6.988281 1.175781 -8.019531 1.59375 -8.9375 C 2.019531 -9.863281 2.671875 -10.601562 3.546875 -11.15625 C 4.421875 -11.707031 5.539062 -11.984375 6.90625 -11.984375 C 8.15625 -11.984375 9.171875 -11.796875 9.953125 -11.421875 C 10.742188 -11.046875 11.34375 -10.515625 11.75 -9.828125 C 12.164062 -9.140625 12.414062 -8.304688 12.5 -7.328125 L 10.65625 -7.328125 C 10.53125 -8.335938 10.171875 -9.117188 9.578125 -9.671875 C 8.992188 -10.222656 8.09375 -10.5 6.875 -10.5 C 5.5 -10.5 4.484375 -10.101562 3.828125 -9.3125 C 3.179688 -8.519531 2.859375 -7.363281 2.859375 -5.84375 C 2.859375 -4.320312 3.171875 -3.164062 3.796875 -2.375 C 4.429688 -1.582031 5.441406 -1.1875 6.828125 -1.1875 C 8.085938 -1.1875 9.023438 -1.484375 9.640625 -2.078125 C 10.253906 -2.679688 10.601562 -3.503906 10.6875 -4.546875 L 12.546875 -4.546875 C 12.484375 -3.566406 12.25 -2.710938 11.84375 -1.984375 C 11.4375 -1.253906 10.828125 -0.691406 10.015625 -0.296875 C 9.203125 0.0976562 8.148438 0.296875 6.859375 0.296875 Z M 6.859375 0.296875 "/></g></g></g><g fill="#ffffff" fill-opacity="1"><g transform="translate(97.170857, 34.32375)"><g><path d="M 7.421875 -8.78125 L 9.171875 -8.78125 L 9.171875 0 L 7.421875 0 L 7.421875 -1.90625 C 7.160156 -1.269531 6.785156 -0.742188 6.296875 -0.328125 C 5.804688 0.078125 5.144531 0.28125 4.3125 0.28125 C 3.144531 0.28125 2.304688 -0.0234375 1.796875 -0.640625 C 1.296875 -1.265625 1.046875 -2.148438 1.046875 -3.296875 L 1.046875 -8.78125 L 2.8125 -8.78125 L 2.8125 -3.453125 C 2.8125 -2.847656 2.898438 -2.378906 3.078125 -2.046875 C 3.253906 -1.710938 3.5 -1.484375 3.8125 -1.359375 C 4.125 -1.234375 4.472656 -1.171875 4.859375 -1.171875 C 5.640625 -1.171875 6.257812 -1.492188 6.71875 -2.140625 C 7.1875 -2.785156 7.421875 -3.765625 7.421875 -5.078125 Z M 7.421875 -8.78125 "/></g></g></g><g fill="#ffffff" fill-opacity="1"><g transform="translate(106.99651, 34.32375)"><g><path d="M 5.296875 -1.015625 C 6.097656 -1.015625 6.691406 -1.171875 7.078125 -1.484375 C 7.472656 -1.804688 7.726562 -2.195312 7.84375 -2.65625 L 9.453125 -2.65625 C 9.421875 -2.34375 9.328125 -2.015625 9.171875 -1.671875 C 9.015625 -1.335938 8.773438 -1.019531 8.453125 -0.71875 C 8.128906 -0.425781 7.707031 -0.1875 7.1875 0 C 6.664062 0.1875 6.019531 0.28125 5.25 0.28125 C 4.207031 0.28125 3.359375 0.0703125 2.703125 -0.34375 C 2.046875 -0.769531 1.566406 -1.335938 1.265625 -2.046875 C 0.960938 -2.753906 0.8125 -3.539062 0.8125 -4.40625 C 0.8125 -5.257812 0.96875 -6.035156 1.28125 -6.734375 C 1.601562 -7.441406 2.09375 -8.003906 2.75 -8.421875 C 3.414062 -8.835938 4.25 -9.046875 5.25 -9.046875 C 6.1875 -9.046875 6.96875 -8.847656 7.59375 -8.453125 C 8.21875 -8.054688 8.6875 -7.519531 9 -6.84375 C 9.3125 -6.164062 9.46875 -5.40625 9.46875 -4.5625 C 9.46875 -4.445312 9.46875 -4.335938 9.46875 -4.234375 C 9.46875 -4.128906 9.457031 -4.015625 9.4375 -3.890625 L 2.53125 -3.890625 C 2.570312 -3.160156 2.71875 -2.585938 2.96875 -2.171875 C 3.21875 -1.753906 3.539062 -1.457031 3.9375 -1.28125 C 4.34375 -1.101562 4.796875 -1.015625 5.296875 -1.015625 Z M 5.265625 -7.75 C 4.515625 -7.75 3.898438 -7.5625 3.421875 -7.1875 C 2.941406 -6.8125 2.648438 -6.140625 2.546875 -5.171875 L 7.796875 -5.171875 C 7.742188 -6.066406 7.503906 -6.71875 7.078125 -7.125 C 6.648438 -7.539062 6.046875 -7.75 5.265625 -7.75 Z M 5.265625 -7.75 "/></g></g></g></g></g></svg>