<svg xmlns="http://www.w3.org/2000/svg" xmlns:xlink="http://www.w3.org/1999/xlink" width="500" zoomAndPan="magnify" viewBox="0 0 375 374.999991" height="500" preserveAspectRatio="xMidYMid meet" version="1.0"><defs><g/><clipPath id="385b893aaf"><path d="M 166.511719 149.144531 L 210.375 149.144531 L 210.375 167.582031 L 166.511719 167.582031 Z M 166.511719 149.144531 " clip-rule="nonzero"/></clipPath><clipPath id="6aaa13e9fb"><path d="M 202.101562 161.828125 L 166.574219 161.828125 L 166.574219 154.898438 L 202.101562 154.898438 L 199.925781 149.144531 L 210.375 158.363281 L 199.925781 167.582031 Z M 202.101562 161.828125 " clip-rule="nonzero"/></clipPath><clipPath id="953b2dccce"><path d="M 0.558594 0.144531 L 44.375 0.144531 L 44.375 18.582031 L 0.558594 18.582031 Z M 0.558594 0.144531 " clip-rule="nonzero"/></clipPath><clipPath id="4dc76a7e52"><path d="M 36.101562 12.828125 L 0.574219 12.828125 L 0.574219 5.898438 L 36.101562 5.898438 L 33.925781 0.144531 L 44.375 9.363281 L 33.925781 18.582031 Z M 36.101562 12.828125 " clip-rule="nonzero"/></clipPath><clipPath id="fb11eb7185"><rect x="0" width="45" y="0" height="19"/></clipPath></defs><g clip-path="url(#385b893aaf)"><g clip-path="url(#6aaa13e9fb)"><g transform="matrix(1, 0, 0, 1, 166, 149)"><g clip-path="url(#fb11eb7185)"><g clip-path="url(#953b2dccce)"><g clip-path="url(#4dc76a7e52)"><path fill="#b5006d" d="M 44.375 18.582031 L 0.585938 18.582031 L 0.585938 0.144531 L 44.375 0.144531 Z M 44.375 18.582031 " fill-opacity="1" fill-rule="nonzero"/></g></g></g></g></g></g><g fill="#000000" fill-opacity="1"><g transform="translate(71.828693, 204.751539)"><g><path d="M 21.4375 0.9375 C 17.164062 0.9375 13.664062 0.0859375 10.9375 -1.609375 C 8.21875 -3.316406 6.21875 -5.613281 4.9375 -8.5 C 3.65625 -11.382812 3.015625 -14.640625 3.015625 -18.265625 C 3.015625 -21.847656 3.671875 -25.082031 4.984375 -27.96875 C 6.304688 -30.851562 8.335938 -33.15625 11.078125 -34.875 C 13.816406 -36.59375 17.328125 -37.453125 21.609375 -37.453125 C 25.484375 -37.453125 28.65625 -36.867188 31.125 -35.703125 C 33.59375 -34.535156 35.46875 -32.875 36.75 -30.71875 C 38.03125 -28.5625 38.796875 -25.960938 39.046875 -22.921875 L 33.296875 -22.921875 C 32.921875 -26.066406 31.8125 -28.5 29.96875 -30.21875 C 28.125 -31.9375 25.300781 -32.796875 21.5 -32.796875 C 17.1875 -32.796875 14.015625 -31.5625 11.984375 -29.09375 C 9.953125 -26.625 8.9375 -23.015625 8.9375 -18.265625 C 8.9375 -13.515625 9.921875 -9.90625 11.890625 -7.4375 C 13.867188 -4.96875 17.015625 -3.734375 21.328125 -3.734375 C 25.273438 -3.734375 28.207031 -4.664062 30.125 -6.53125 C 32.050781 -8.394531 33.144531 -10.953125 33.40625 -14.203125 L 39.21875 -14.203125 C 39.03125 -11.128906 38.296875 -8.457031 37.015625 -6.1875 C 35.734375 -3.925781 33.820312 -2.171875 31.28125 -0.921875 C 28.75 0.316406 25.46875 0.9375 21.4375 0.9375 Z M 21.4375 0.9375 "/></g></g></g><g fill="#000000" fill-opacity="1"><g transform="translate(111.032864, 204.751539)"><g><path d="M 23.203125 -27.421875 L 28.6875 -27.421875 L 28.6875 0 L 23.203125 0 L 23.203125 -5.984375 C 22.398438 -3.972656 21.226562 -2.328125 19.6875 -1.046875 C 18.15625 0.234375 16.085938 0.875 13.484375 0.875 C 9.828125 0.875 7.210938 -0.09375 5.640625 -2.03125 C 4.078125 -3.96875 3.296875 -6.726562 3.296875 -10.3125 L 3.296875 -27.421875 L 8.78125 -27.421875 L 8.78125 -10.796875 C 8.78125 -8.898438 9.0625 -7.429688 9.625 -6.390625 C 10.1875 -5.347656 10.953125 -4.632812 11.921875 -4.25 C 12.890625 -3.863281 13.976562 -3.671875 15.1875 -3.671875 C 17.632812 -3.671875 19.582031 -4.675781 21.03125 -6.6875 C 22.476562 -8.695312 23.203125 -11.75 23.203125 -15.84375 Z M 23.203125 -27.421875 "/></g></g></g><g fill="#000000" fill-opacity="1"><g transform="translate(140.805926, 204.751539)"><g><path d="M 16.5625 -3.1875 C 19.050781 -3.1875 20.90625 -3.675781 22.125 -4.65625 C 23.351562 -5.644531 24.148438 -6.851562 24.515625 -8.28125 L 29.5625 -8.28125 C 29.445312 -7.332031 29.144531 -6.328125 28.65625 -5.265625 C 28.164062 -4.203125 27.414062 -3.203125 26.40625 -2.265625 C 25.40625 -1.335938 24.085938 -0.582031 22.453125 0 C 20.828125 0.582031 18.804688 0.875 16.390625 0.875 C 13.140625 0.875 10.488281 0.21875 8.4375 -1.09375 C 6.394531 -2.414062 4.894531 -4.179688 3.9375 -6.390625 C 2.988281 -8.597656 2.515625 -11.054688 2.515625 -13.765625 C 2.515625 -16.429688 3.019531 -18.859375 4.03125 -21.046875 C 5.039062 -23.242188 6.578125 -25 8.640625 -26.3125 C 10.703125 -27.632812 13.285156 -28.296875 16.390625 -28.296875 C 19.316406 -28.296875 21.757812 -27.671875 23.71875 -26.421875 C 25.675781 -25.179688 27.144531 -23.5 28.125 -21.375 C 29.113281 -19.257812 29.609375 -16.890625 29.609375 -14.265625 C 29.609375 -13.890625 29.609375 -13.535156 29.609375 -13.203125 C 29.609375 -12.878906 29.570312 -12.535156 29.5 -12.171875 L 7.890625 -12.171875 C 8.035156 -9.867188 8.5 -8.066406 9.28125 -6.765625 C 10.070312 -5.472656 11.085938 -4.550781 12.328125 -4 C 13.578125 -3.457031 14.988281 -3.1875 16.5625 -3.1875 Z M 16.453125 -24.234375 C 14.109375 -24.234375 12.1875 -23.648438 10.6875 -22.484375 C 9.195312 -21.316406 8.285156 -19.210938 7.953125 -16.171875 L 24.34375 -16.171875 C 24.195312 -18.953125 23.457031 -20.988281 22.125 -22.28125 C 20.789062 -23.582031 18.898438 -24.234375 16.453125 -24.234375 Z M 16.453125 -24.234375 "/></g></g></g><g fill="#b5006d" fill-opacity="1"><g transform="translate(169.984936, 204.751539)"><g><path d="M 25.5625 -18.859375 C 27.71875 -18.566406 29.535156 -17.679688 31.015625 -16.203125 C 32.492188 -14.722656 33.234375 -12.613281 33.234375 -9.875 C 33.234375 -6.945312 32.273438 -4.566406 30.359375 -2.734375 C 28.441406 -0.910156 25.578125 0 21.765625 0 L 3.5625 0 L 3.5625 -36.46875 L 22.15625 -36.46875 C 24.71875 -36.46875 26.765625 -36.066406 28.296875 -35.265625 C 29.835938 -34.460938 30.960938 -33.382812 31.671875 -32.03125 C 32.378906 -30.675781 32.734375 -29.175781 32.734375 -27.53125 C 32.734375 -25.738281 32.382812 -24.238281 31.6875 -23.03125 C 31 -21.820312 30.101562 -20.878906 29 -20.203125 C 27.90625 -19.523438 26.757812 -19.078125 25.5625 -18.859375 Z M 20.84375 -31.921875 L 9.21875 -31.921875 L 9.21875 -20.953125 L 20.125 -20.953125 C 22.46875 -20.953125 24.164062 -21.414062 25.21875 -22.34375 C 26.28125 -23.28125 26.8125 -24.679688 26.8125 -26.546875 C 26.8125 -28.335938 26.390625 -29.679688 25.546875 -30.578125 C 24.710938 -31.472656 23.144531 -31.921875 20.84375 -31.921875 Z M 21.109375 -4.546875 C 23.378906 -4.546875 24.976562 -5.140625 25.90625 -6.328125 C 26.84375 -7.515625 27.3125 -8.914062 27.3125 -10.53125 C 27.3125 -12.539062 26.742188 -14.082031 25.609375 -15.15625 C 24.472656 -16.238281 22.644531 -16.78125 20.125 -16.78125 L 9.21875 -16.78125 L 9.21875 -4.546875 Z M 21.109375 -4.546875 "/></g></g></g><g fill="#000000" fill-opacity="1"><g transform="translate(203.219309, 204.751539)"><g><path d="M 12.125 0.71875 C 9.34375 0.71875 7.128906 0.00390625 5.484375 -1.421875 C 3.835938 -2.847656 3.015625 -4.820312 3.015625 -7.34375 C 3.015625 -9.539062 3.632812 -11.34375 4.875 -12.75 C 6.125 -14.15625 8.285156 -15.113281 11.359375 -15.625 L 18.203125 -16.78125 C 19.523438 -17 20.492188 -17.34375 21.109375 -17.8125 C 21.734375 -18.289062 22.046875 -19.007812 22.046875 -19.96875 C 22.046875 -21.207031 21.632812 -22.207031 20.8125 -22.96875 C 19.988281 -23.738281 18.390625 -24.125 16.015625 -24.125 C 13.785156 -24.125 12.113281 -23.675781 11 -22.78125 C 9.882812 -21.882812 9.253906 -20.578125 9.109375 -18.859375 L 3.625 -18.859375 C 3.65625 -21.785156 4.722656 -24.097656 6.828125 -25.796875 C 8.929688 -27.503906 11.921875 -28.359375 15.796875 -28.359375 C 19.597656 -28.359375 22.429688 -27.570312 24.296875 -26 C 26.160156 -24.425781 27.09375 -22.378906 27.09375 -19.859375 L 27.09375 -6.25 C 27.09375 -5.226562 27.109375 -4.25 27.140625 -3.3125 C 27.179688 -2.382812 27.253906 -1.28125 27.359375 0 L 22.375 0 C 22.269531 -1.0625 22.1875 -2.082031 22.125 -3.0625 C 22.070312 -4.050781 22.046875 -5.097656 22.046875 -6.203125 C 21.679688 -5.066406 21.085938 -3.96875 20.265625 -2.90625 C 19.441406 -1.84375 18.363281 -0.972656 17.03125 -0.296875 C 15.695312 0.378906 14.0625 0.71875 12.125 0.71875 Z M 13.265625 -3.515625 C 15.203125 -3.515625 16.820312 -3.953125 18.125 -4.828125 C 19.425781 -5.703125 20.40625 -6.878906 21.0625 -8.359375 C 21.71875 -9.835938 22.046875 -11.492188 22.046875 -13.328125 L 22.046875 -14.96875 C 21.316406 -14.425781 20.53125 -14.015625 19.6875 -13.734375 C 18.84375 -13.460938 18.003906 -13.234375 17.171875 -13.046875 L 13.375 -12.171875 C 11.695312 -11.804688 10.460938 -11.265625 9.671875 -10.546875 C 8.890625 -9.835938 8.5 -8.84375 8.5 -7.5625 C 8.5 -6.25 8.9375 -5.242188 9.8125 -4.546875 C 10.695312 -3.859375 11.847656 -3.515625 13.265625 -3.515625 Z M 13.265625 -3.515625 "/></g></g></g><g fill="#000000" fill-opacity="1"><g transform="translate(230.908757, 204.751539)"><g><path d="M 1.859375 -9.15625 L 6.96875 -9.15625 C 7.070312 -7.476562 7.726562 -6.0625 8.9375 -4.90625 C 10.144531 -3.757812 12.082031 -3.1875 14.75 -3.1875 C 17.195312 -3.1875 18.820312 -3.578125 19.625 -4.359375 C 20.4375 -5.148438 20.84375 -6.164062 20.84375 -7.40625 C 20.84375 -8.539062 20.507812 -9.425781 19.84375 -10.0625 C 19.1875 -10.707031 18.128906 -11.140625 16.671875 -11.359375 L 9.875 -12.390625 C 7.5 -12.753906 5.675781 -13.578125 4.40625 -14.859375 C 3.144531 -16.140625 2.515625 -17.820312 2.515625 -19.90625 C 2.515625 -22.539062 3.519531 -24.609375 5.53125 -26.109375 C 7.550781 -27.609375 10.351562 -28.359375 13.9375 -28.359375 C 17.476562 -28.359375 20.289062 -27.550781 22.375 -25.9375 C 24.457031 -24.332031 25.59375 -22.234375 25.78125 -19.640625 L 20.296875 -19.640625 C 20.148438 -20.910156 19.554688 -22.003906 18.515625 -22.921875 C 17.472656 -23.835938 15.890625 -24.296875 13.765625 -24.296875 C 11.640625 -24.296875 10.117188 -23.921875 9.203125 -23.171875 C 8.296875 -22.421875 7.84375 -21.5 7.84375 -20.40625 C 7.84375 -19.59375 8.109375 -18.867188 8.640625 -18.234375 C 9.171875 -17.597656 10.164062 -17.171875 11.625 -16.953125 L 17.546875 -16.0625 C 19.816406 -15.738281 21.582031 -15.179688 22.84375 -14.390625 C 24.101562 -13.609375 24.976562 -12.648438 25.46875 -11.515625 C 25.96875 -10.378906 26.21875 -9.097656 26.21875 -7.671875 C 26.21875 -4.859375 25.273438 -2.726562 23.390625 -1.28125 C 21.503906 0.15625 18.570312 0.875 14.59375 0.875 C 11.59375 0.875 9.148438 0.425781 7.265625 -0.46875 C 5.378906 -1.363281 4.003906 -2.566406 3.140625 -4.078125 C 2.285156 -5.597656 1.859375 -7.289062 1.859375 -9.15625 Z M 1.859375 -9.15625 "/></g></g></g><g fill="#000000" fill-opacity="1"><g transform="translate(256.45975, 204.751539)"><g><path d="M 16.5625 -3.1875 C 19.050781 -3.1875 20.90625 -3.675781 22.125 -4.65625 C 23.351562 -5.644531 24.148438 -6.851562 24.515625 -8.28125 L 29.5625 -8.28125 C 29.445312 -7.332031 29.144531 -6.328125 28.65625 -5.265625 C 28.164062 -4.203125 27.414062 -3.203125 26.40625 -2.265625 C 25.40625 -1.335938 24.085938 -0.582031 22.453125 0 C 20.828125 0.582031 18.804688 0.875 16.390625 0.875 C 13.140625 0.875 10.488281 0.21875 8.4375 -1.09375 C 6.394531 -2.414062 4.894531 -4.179688 3.9375 -6.390625 C 2.988281 -8.597656 2.515625 -11.054688 2.515625 -13.765625 C 2.515625 -16.429688 3.019531 -18.859375 4.03125 -21.046875 C 5.039062 -23.242188 6.578125 -25 8.640625 -26.3125 C 10.703125 -27.632812 13.285156 -28.296875 16.390625 -28.296875 C 19.316406 -28.296875 21.757812 -27.671875 23.71875 -26.421875 C 25.675781 -25.179688 27.144531 -23.5 28.125 -21.375 C 29.113281 -19.257812 29.609375 -16.890625 29.609375 -14.265625 C 29.609375 -13.890625 29.609375 -13.535156 29.609375 -13.203125 C 29.609375 -12.878906 29.570312 -12.535156 29.5 -12.171875 L 7.890625 -12.171875 C 8.035156 -9.867188 8.5 -8.066406 9.28125 -6.765625 C 10.070312 -5.472656 11.085938 -4.550781 12.328125 -4 C 13.578125 -3.457031 14.988281 -3.1875 16.5625 -3.1875 Z M 16.453125 -24.234375 C 14.109375 -24.234375 12.1875 -23.648438 10.6875 -22.484375 C 9.195312 -21.316406 8.285156 -19.210938 7.953125 -16.171875 L 24.34375 -16.171875 C 24.195312 -18.953125 23.457031 -20.988281 22.125 -22.28125 C 20.789062 -23.582031 18.898438 -24.234375 16.453125 -24.234375 Z M 16.453125 -24.234375 "/></g></g></g><g fill="#000000" fill-opacity="1"><g transform="translate(285.629662, 204.751539)"><g><path d="M 1.640625 0 L 23.578125 0 L 23.578125 4.109375 L 1.640625 4.109375 Z M 1.640625 0 "/></g></g></g></svg>